<svg xmlns="http://www.w3.org/2000/svg" width="1024" height="1180" viewBox="0 0 1024 1180" role="img" aria-labelledby="title desc">
  <title id="title">Swift Logo</title>
  <desc id="desc">Rounded square logo with stylized S and the text Swift.</desc>
  <defs>
    <linearGradient id="bg" x1="0" y1="0" x2="1" y2="1">
      <stop offset="0%" stop-color="#0EA5A1"/>
      <stop offset="100%" stop-color="#0F766E"/>
    </linearGradient>
  </defs>
  <rect x="64" y="64" width="896" height="896" rx="208" fill="url(#bg)"/>
  <path d="M292 396c0-91 74-164 165-164h267v88H460c-42 0-76 34-76 76 0 26 13 48 34 62l177 117c49 32 78 86 78 145 0 95-77 172-172 172H248v-88h255c46 0 84-38 84-84 0-29-14-55-39-71L370 531c-49-32-78-83-78-135z" fill="#FFFFFF"/>
  <text x="512" y="1088" text-anchor="middle" dominant-baseline="middle" font-family="Poppins, Segoe UI, Arial, sans-serif" font-size="90" font-weight="700" fill="#FFFFFF">Swift</text>
</svg>
